<svg xmlns="http://www.w3.org/2000/svg" viewBox="0 0 280 600" role="img" aria-label="Now Playing screen placeholder">
  <defs>
    <linearGradient id="bg-np" x1="0" x2="0" y1="0" y2="1">
      <stop offset="0" stop-color="#1f1730"/>
      <stop offset="1" stop-color="#0c0e16"/>
    </linearGradient>
    <linearGradient id="art" x1="0" x2="1" y1="0" y2="1">
      <stop offset="0" stop-color="#ff8a3d"/>
      <stop offset="1" stop-color="#7d6cff"/>
    </linearGradient>
  </defs>
  <rect x="0" y="0" width="280" height="600" rx="34" fill="url(#bg-np)"/>
  <rect x="6" y="6" width="268" height="588" rx="30" fill="none" stroke="#2a313d" stroke-width="1"/>

  <rect x="118" y="22" width="44" height="6" rx="3" fill="#2a313d"/>

  <text x="140" y="62" text-anchor="middle" fill="#e8eaef" font-family="-apple-system,sans-serif" font-size="13" font-weight="600">Now Playing</text>

  <rect x="50" y="92" width="180" height="180" rx="14" fill="url(#art)"/>
  <text x="140" y="190" text-anchor="middle" fill="rgba(255,255,255,0.8)" font-family="-apple-system,sans-serif" font-size="36" font-weight="700">N</text>

  <rect x="40" y="296" width="200" height="8" rx="2" fill="#e8eaef"/>
  <rect x="60" y="316" width="160" height="6" rx="2" fill="#9aa3b2"/>

  <!-- Timeline with skip markers -->
  <rect x="40" y="356" width="200" height="6" rx="3" fill="#2a313d"/>
  <rect x="40" y="356" width="62" height="6" rx="3" fill="#7d6cff" opacity="0.85"/>
  <rect x="40" y="356" width="34" height="6" rx="3" fill="#e8eaef"/>
  <rect x="125" y="356" width="22" height="6" rx="3" fill="#ff8a3d"/>
  <rect x="180" y="356" width="18" height="6" rx="3" fill="#ff8a3d"/>
  <rect x="222" y="356" width="18" height="6" rx="3" fill="#7d6cff" opacity="0.85"/>

  <text x="40" y="380" fill="#9aa3b2" font-family="-apple-system,sans-serif" font-size="9">12:34</text>
  <text x="240" y="380" text-anchor="end" fill="#9aa3b2" font-family="-apple-system,sans-serif" font-size="9">58:02</text>

  <!-- Transport controls -->
  <circle cx="140" cy="450" r="32" fill="#ff8a3d"/>
  <path d="M132 438 l16 12 -16 12 z" fill="#0c0e16"/>

  <g fill="none" stroke="#e8eaef" stroke-width="2.5" stroke-linecap="round" stroke-linejoin="round">
    <path d="M82 442 v16 M76 442 l6 -6 6 6 M76 458 l6 6 6 -6"/>
    <path d="M194 442 v16 M188 442 l6 -6 6 6 M188 458 l6 6 6 -6" transform="translate(0,0) scale(-1,1) translate(-388,0)"/>
  </g>
  <text x="82" y="478" text-anchor="middle" fill="#9aa3b2" font-family="-apple-system,sans-serif" font-size="9">−15</text>
  <text x="198" y="478" text-anchor="middle" fill="#9aa3b2" font-family="-apple-system,sans-serif" font-size="9">+30</text>

  <text x="140" y="520" text-anchor="middle" fill="#9aa3b2" font-family="-apple-system,sans-serif" font-size="10">3 ads · intro · outro</text>

  <rect x="40" y="544" width="200" height="36" rx="10" fill="#181c24"/>
  <text x="140" y="567" text-anchor="middle" fill="#e8eaef" font-family="-apple-system,sans-serif" font-size="11">Show Transcript</text>
</svg>
