<svg xmlns="http://www.w3.org/2000/svg" viewBox="0 0 280 600" role="img" aria-label="Queue tab placeholder">
  <defs>
    <linearGradient id="bg-queue" x1="0" x2="0" y1="0" y2="1">
      <stop offset="0" stop-color="#1a2030"/>
      <stop offset="1" stop-color="#0e1118"/>
    </linearGradient>
  </defs>
  <rect x="0" y="0" width="280" height="600" rx="34" fill="url(#bg-queue)"/>
  <rect x="6" y="6" width="268" height="588" rx="30" fill="none" stroke="#2a313d" stroke-width="1"/>

  <rect x="118" y="22" width="44" height="6" rx="3" fill="#2a313d"/>
  <text x="140" y="62" text-anchor="middle" fill="#e8eaef" font-family="-apple-system,sans-serif" font-size="15" font-weight="600">Queue</text>

  <rect x="22" y="84" width="236" height="34" rx="9" fill="#181c24"/>
  <circle cx="40" cy="101" r="7" fill="#ff8a3d" opacity="0.6"/>
  <rect x="56" y="96" width="120" height="5" rx="2" fill="#9aa3b2"/>
  <rect x="56" y="105" width="80" height="4" rx="2" fill="#3b4150"/>

  <text x="22" y="142" fill="#9aa3b2" font-family="-apple-system,sans-serif" font-size="10" font-weight="600" letter-spacing="0.06em">NOW PLAYING</text>
  <rect x="22" y="150" width="236" height="60" rx="10" fill="#181c24"/>
  <rect x="32" y="160" width="40" height="40" rx="6" fill="#2a313d"/>
  <rect x="82" y="164" width="110" height="6" rx="2" fill="#e8eaef"/>
  <rect x="82" y="176" width="80" height="5" rx="2" fill="#9aa3b2"/>
  <rect x="82" y="187" width="60" height="4" rx="2" fill="#3b4150"/>
  <rect x="222" y="178" width="14" height="4" rx="2" fill="#7d6cff"/>
  <rect x="226" y="172" width="6" height="16" rx="2" fill="#7d6cff"/>

  <text x="22" y="240" fill="#9aa3b2" font-family="-apple-system,sans-serif" font-size="10" font-weight="600" letter-spacing="0.06em">UP NEXT</text>

  <g id="row">
    <rect x="22" y="250" width="236" height="60" rx="10" fill="#181c24"/>
    <rect x="32" y="260" width="40" height="40" rx="6" fill="#2a313d"/>
    <rect x="82" y="264" width="115" height="6" rx="2" fill="#e8eaef"/>
    <rect x="82" y="276" width="85" height="5" rx="2" fill="#9aa3b2"/>
    <rect x="82" y="287" width="70" height="4" rx="2" fill="#ff8a3d"/>
    <circle cx="232" cy="280" r="9" fill="none" stroke="#ff8a3d" stroke-width="1.5"/>
    <path d="M229 277 l5 3 -5 3 z" fill="#ff8a3d"/>
  </g>

  <use href="#row" y="68"/>
  <use href="#row" y="136"/>
  <use href="#row" y="204"/>

  <rect x="60" y="556" width="160" height="34" rx="17" fill="#181c24"/>
  <circle cx="92" cy="573" r="5" fill="#ff8a3d"/>
  <rect x="104" y="568" width="60" height="4" rx="2" fill="#e8eaef"/>
  <rect x="104" y="576" width="40" height="3" rx="1.5" fill="#9aa3b2"/>
</svg>
