<svg xmlns="http://www.w3.org/2000/svg" viewBox="0 0 280 600" role="img" aria-label="Settings tab placeholder">
  <defs>
    <linearGradient id="bg-set" x1="0" x2="0" y1="0" y2="1">
      <stop offset="0" stop-color="#141821"/>
      <stop offset="1" stop-color="#0a0c12"/>
    </linearGradient>
  </defs>
  <rect x="0" y="0" width="280" height="600" rx="34" fill="url(#bg-set)"/>
  <rect x="6" y="6" width="268" height="588" rx="30" fill="none" stroke="#2a313d" stroke-width="1"/>

  <rect x="118" y="22" width="44" height="6" rx="3" fill="#2a313d"/>
  <text x="140" y="62" text-anchor="middle" fill="#e8eaef" font-family="-apple-system,sans-serif" font-size="13" font-weight="600">Settings</text>

  <text x="22" y="92" fill="#9aa3b2" font-family="-apple-system,sans-serif" font-size="10" font-weight="600" letter-spacing="0.06em">LISTENING</text>
  <rect x="22" y="100" width="236" height="86" rx="10" fill="#181c24"/>
  <text x="34" y="120" fill="#e8eaef" font-family="-apple-system,sans-serif" font-size="11">Played (incl. ads)</text>
  <text x="246" y="120" text-anchor="end" fill="#9aa3b2" font-family="-apple-system,sans-serif" font-size="11">142 hr</text>
  <line x1="34" y1="132" x2="246" y2="132" stroke="#2a313d"/>
  <text x="34" y="148" fill="#e8eaef" font-family="-apple-system,sans-serif" font-size="11">Ads skipped</text>
  <text x="246" y="148" text-anchor="end" fill="#ff8a3d" font-family="-apple-system,sans-serif" font-size="11">19 hr</text>
  <line x1="34" y1="160" x2="246" y2="160" stroke="#2a313d"/>
  <text x="34" y="176" fill="#e8eaef" font-family="-apple-system,sans-serif" font-size="11">Ads</text>
  <text x="246" y="176" text-anchor="end" fill="#9aa3b2" font-family="-apple-system,sans-serif" font-size="11">13.4%</text>

  <text x="22" y="210" fill="#9aa3b2" font-family="-apple-system,sans-serif" font-size="10" font-weight="600" letter-spacing="0.06em">SKIPPING</text>
  <rect x="22" y="218" width="236" height="118" rx="10" fill="#181c24"/>

  <text x="34" y="238" fill="#e8eaef" font-family="-apple-system,sans-serif" font-size="11">Skip ads</text>
  <rect x="222" y="228" width="28" height="16" rx="8" fill="#ff8a3d"/>
  <circle cx="244" cy="236" r="6" fill="#fff"/>
  <line x1="34" y1="252" x2="246" y2="252" stroke="#2a313d"/>

  <text x="34" y="270" fill="#e8eaef" font-family="-apple-system,sans-serif" font-size="11">Skip intros &amp; outros</text>
  <rect x="222" y="260" width="28" height="16" rx="8" fill="#ff8a3d"/>
  <circle cx="244" cy="268" r="6" fill="#fff"/>
  <line x1="34" y1="286" x2="246" y2="286" stroke="#2a313d"/>

  <text x="34" y="304" fill="#e8eaef" font-family="-apple-system,sans-serif" font-size="11">Chain-skip gap</text>
  <text x="246" y="304" text-anchor="end" fill="#9aa3b2" font-family="-apple-system,sans-serif" font-size="11">5 s</text>

  <text x="22" y="360" fill="#9aa3b2" font-family="-apple-system,sans-serif" font-size="10" font-weight="600" letter-spacing="0.06em">DETECTION MODEL</text>
  <rect x="22" y="368" width="236" height="86" rx="10" fill="#181c24"/>
  <text x="34" y="388" fill="#e8eaef" font-family="-apple-system,sans-serif" font-size="11">Model</text>
  <text x="246" y="388" text-anchor="end" fill="#9aa3b2" font-family="-apple-system,sans-serif" font-size="11">Gemini Flash &gt;</text>
  <line x1="34" y1="400" x2="246" y2="400" stroke="#2a313d"/>
  <text x="34" y="420" fill="#9aa3b2" font-family="-apple-system,sans-serif" font-size="10">Google AI API key</text>
  <text x="246" y="420" text-anchor="end" fill="#9aa3b2" font-family="-apple-system,sans-serif" font-size="11">••••••••</text>
  <line x1="34" y1="430" x2="246" y2="430" stroke="#2a313d"/>
  <text x="34" y="448" fill="#9aa3b2" font-family="-apple-system,sans-serif" font-size="9">Sends transcript to Google in</text>

  <text x="22" y="478" fill="#9aa3b2" font-family="-apple-system,sans-serif" font-size="10" font-weight="600" letter-spacing="0.06em">AD DETECTION</text>
  <rect x="22" y="486" width="236" height="40" rx="10" fill="#181c24"/>
  <circle cx="40" cy="506" r="8" fill="none" stroke="#7d6cff" stroke-width="1.5"/>
  <text x="34" y="510" fill="#7d6cff" font-family="-apple-system,sans-serif" font-size="11" text-anchor="middle">⏿</text>
  <text x="58" y="510" fill="#e8eaef" font-family="-apple-system,sans-serif" font-size="11">Detection prompt</text>
  <text x="246" y="510" text-anchor="end" fill="#9aa3b2" font-family="-apple-system,sans-serif" font-size="11">&gt;</text>
</svg>
